<svg width="369" height="108" viewBox="0 0 369 108" fill="none" xmlns="http://www.w3.org/2000/svg">
<g filter="url(#filter0_di)">
<g clip-path="url(#clip0)">
<rect x="18" y="14" width="71.8326" height="72" rx="14" fill="#E7EEFF"/>
<path d="M85.4947 24.9168C85.4947 42.2428 71.4818 56.2883 54.1962 56.2883C36.9105 56.2883 22.8977 42.2428 22.8977 24.9168C22.8977 7.59087 36.9105 -6.45459 54.1962 -6.45459C71.4818 -6.45459 85.4947 7.59087 85.4947 24.9168Z" fill="white"/>
<g filter="url(#filter1_b)">
<rect width="71.8326" height="72" transform="translate(18 14)" fill="#E7EEFF" fill-opacity="0.3"/>
</g>
<path opacity="0.4" d="M98.555 83.1714C98.555 98.9352 78.6844 111.714 54.1728 111.714C29.6611 111.714 9.79053 98.9352 9.79053 83.1714C9.79053 67.4076 29.6611 54.6285 54.1728 54.6285C78.6844 54.6285 98.555 67.4076 98.555 83.1714Z" fill="white"/>
<path fill-rule="evenodd" clip-rule="evenodd" d="M53.9162 60.0286C51.2241 60.0286 49.0418 57.8412 49.0418 55.1429L49.0418 48.7143L42.6282 48.7143C39.9362 48.7143 37.7538 46.5269 37.7538 43.8286C37.7538 41.1303 39.9362 38.9429 42.6282 38.9429L49.2984 38.9429C54.5407 38.9429 58.7905 43.2026 58.7905 48.4572L58.7905 55.1429C58.7905 57.8412 56.6082 60.0286 53.9162 60.0286Z" fill="#0084F5"/>
<path fill-rule="evenodd" clip-rule="evenodd" d="M53.9161 27.6287C56.6081 27.6287 58.7905 29.8161 58.7905 32.5144V38.9429H65.2041C67.8961 38.9429 70.0784 41.1304 70.0784 43.8287C70.0784 46.527 67.8961 48.7144 65.2041 48.7144H58.5339C53.2915 48.7144 49.0417 44.4547 49.0417 39.2001V32.5144C49.0417 29.8161 51.2241 27.6287 53.9161 27.6287Z" fill="#5D78FF"/>
<path fill-rule="evenodd" clip-rule="evenodd" d="M58.7905 48.7144H58.5339C53.2915 48.7144 49.0417 44.4547 49.0417 39.2001V38.9429L49.2983 38.9429C54.5407 38.9429 58.7905 43.2026 58.7905 48.4572V48.7144Z" fill="#303D7E"/>
<path d="M59.0473 67.2287C59.0473 69.927 56.865 72.1144 54.1729 72.1144C51.4809 72.1144 49.2986 69.927 49.2986 67.2287C49.2986 64.5304 51.4809 62.343 54.1729 62.343C56.865 62.343 59.0473 64.5304 59.0473 67.2287Z" fill="#5D78FF"/>
</g>
<rect x="18.5" y="14.5" width="70.8326" height="71" rx="13.5" stroke="#9E9E9E" stroke-opacity="0.05"/>
</g>
<path d="M126.905 59.9879C124.936 59.9879 123.184 59.5426 121.649 58.652C120.114 57.7614 118.948 56.5895 118.151 55.1364C117.354 53.6715 116.955 52.066 116.955 50.3199C116.955 48.527 117.354 46.8864 118.151 45.3981C118.948 43.8981 120.114 42.6969 121.649 41.7946C123.184 40.8922 124.948 40.441 126.94 40.441C128.44 40.441 129.811 40.7047 131.053 41.2321C132.307 41.7594 133.344 42.4742 134.164 43.3766C134.996 44.2672 135.635 45.2926 136.08 46.4528C136.537 47.6129 136.766 48.8375 136.766 50.1266C136.766 50.7946 136.731 51.3336 136.66 51.7438H122.071C122.188 53.1735 122.727 54.3219 123.688 55.1891C124.649 56.0446 125.78 56.4723 127.08 56.4723C128.053 56.4723 128.961 56.2379 129.805 55.7692C130.66 55.2887 131.24 54.6676 131.545 53.9059L135.676 55.066C134.973 56.5426 133.842 57.7321 132.283 58.6344C130.737 59.5367 128.944 59.9879 126.905 59.9879ZM121.965 48.6852H131.826C131.686 47.2672 131.153 46.1246 130.227 45.2574C129.313 44.3785 128.194 43.9391 126.869 43.9391C125.569 43.9391 124.455 44.3785 123.53 45.2574C122.604 46.1364 122.082 47.2789 121.965 48.6852ZM139.236 51.9371V47.5778H150.134V51.9371H139.236ZM169.726 40.775C169.292 40.2946 168.378 39.7555 166.983 39.1578C165.589 38.5485 164.212 38.2438 162.853 38.2438C161.517 38.2438 160.503 38.4957 159.811 38.9996C159.12 39.4918 158.774 40.2008 158.774 41.1266C158.774 41.3844 158.798 41.6246 158.845 41.8473C158.903 42.0582 159.003 42.2574 159.144 42.4449C159.296 42.6324 159.442 42.7965 159.583 42.9371C159.735 43.0778 159.958 43.2184 160.251 43.359C160.556 43.4996 160.825 43.6227 161.06 43.7281C161.294 43.8219 161.634 43.9391 162.079 44.0797C162.536 44.2086 162.923 44.3199 163.239 44.4137C163.556 44.4957 164.013 44.6129 164.61 44.7653C165.7 45.0465 166.632 45.3278 167.405 45.609C168.19 45.8785 168.94 46.2242 169.655 46.6461C170.382 47.0563 170.962 47.5192 171.395 48.0348C171.829 48.5387 172.175 49.1539 172.433 49.8805C172.69 50.5953 172.819 51.4098 172.819 52.3239C172.819 53.6481 172.561 54.8141 172.046 55.8219C171.542 56.818 170.839 57.609 169.936 58.1949C169.046 58.7809 168.05 59.2145 166.948 59.4957C165.847 59.777 164.645 59.9176 163.345 59.9176C161.435 59.9176 159.536 59.6305 157.649 59.0563C155.774 58.4703 154.099 57.6559 152.622 56.6129L154.819 52.3239C155.429 52.9332 156.583 53.6071 158.282 54.3453C159.993 55.0836 161.704 55.4528 163.415 55.4528C164.763 55.4528 165.782 55.2301 166.474 54.7848C167.177 54.3278 167.528 53.6774 167.528 52.8336C167.528 52.3063 167.405 51.861 167.159 51.4977C166.925 51.1227 166.468 50.777 165.788 50.4606C165.12 50.1442 164.534 49.9039 164.03 49.7399C163.526 49.5758 162.671 49.3297 161.464 49.0016C161.382 48.9781 161.317 48.9606 161.27 48.9489C161.224 48.9371 161.165 48.9196 161.095 48.8961C161.024 48.8727 160.96 48.8551 160.901 48.8434C159.624 48.4801 158.558 48.111 157.702 47.736C156.847 47.3492 156.103 46.8864 155.47 46.3473C154.837 45.8082 154.374 45.1813 154.081 44.4664C153.8 43.7399 153.659 42.8903 153.659 41.9176C153.659 40.2301 154.081 38.7711 154.925 37.5406C155.769 36.3102 156.882 35.3961 158.265 34.7985C159.659 34.2008 161.235 33.902 162.993 33.902C166.157 33.902 169.134 34.8453 171.923 36.7321L169.726 40.775ZM187.049 59.8121C185.467 59.8121 184.037 59.5836 182.76 59.1266C181.483 58.6578 180.416 58.0309 179.561 57.2457C178.717 56.4606 178.008 55.5231 177.434 54.4332C176.871 53.3434 176.467 52.1949 176.221 50.9879C175.975 49.7692 175.852 48.4742 175.852 47.1031V34.0778H180.826V47.1031C180.826 48.2281 180.932 49.2711 181.143 50.2321C181.366 51.1813 181.705 52.0543 182.162 52.8512C182.631 53.6481 183.276 54.275 184.096 54.7321C184.928 55.1891 185.901 55.4176 187.014 55.4176C188.151 55.4176 189.135 55.1891 189.967 54.7321C190.811 54.2633 191.461 53.6246 191.918 52.816C192.387 52.0074 192.727 51.1344 192.938 50.1969C193.16 49.2477 193.272 48.2164 193.272 47.1031V34.0778H198.211V47.1031C198.211 48.8961 197.994 50.5426 197.561 52.0426C197.127 53.5426 196.471 54.8844 195.592 56.068C194.725 57.2399 193.559 58.1598 192.094 58.8278C190.641 59.484 188.959 59.8121 187.049 59.8121ZM218.084 40.775C217.65 40.2946 216.736 39.7555 215.341 39.1578C213.947 38.5485 212.57 38.2438 211.211 38.2438C209.875 38.2438 208.861 38.4957 208.17 38.9996C207.478 39.4918 207.133 40.2008 207.133 41.1266C207.133 41.3844 207.156 41.6246 207.203 41.8473C207.261 42.0582 207.361 42.2574 207.502 42.4449C207.654 42.6324 207.8 42.7965 207.941 42.9371C208.093 43.0778 208.316 43.2184 208.609 43.359C208.914 43.4996 209.183 43.6227 209.418 43.7281C209.652 43.8219 209.992 43.9391 210.437 44.0797C210.894 44.2086 211.281 44.3199 211.597 44.4137C211.914 44.4957 212.371 44.6129 212.968 44.7653C214.058 45.0465 214.99 45.3278 215.763 45.609C216.549 45.8785 217.299 46.2242 218.013 46.6461C218.74 47.0563 219.32 47.5192 219.754 48.0348C220.187 48.5387 220.533 49.1539 220.791 49.8805C221.049 50.5953 221.177 51.4098 221.177 52.3239C221.177 53.6481 220.92 54.8141 220.404 55.8219C219.9 56.818 219.197 57.609 218.295 58.1949C217.404 58.7809 216.408 59.2145 215.306 59.4957C214.205 59.777 213.004 59.9176 211.703 59.9176C209.793 59.9176 207.894 59.6305 206.008 59.0563C204.133 58.4703 202.457 57.6559 200.98 56.6129L203.177 52.3239C203.787 52.9332 204.941 53.6071 206.64 54.3453C208.351 55.0836 210.062 55.4528 211.773 55.4528C213.121 55.4528 214.14 55.2301 214.832 54.7848C215.535 54.3278 215.886 53.6774 215.886 52.8336C215.886 52.3063 215.763 51.861 215.517 51.4977C215.283 51.1227 214.826 50.777 214.146 50.4606C213.478 50.1442 212.892 49.9039 212.388 49.7399C211.884 49.5758 211.029 49.3297 209.822 49.0016C209.74 48.9781 209.675 48.9606 209.629 48.9489C209.582 48.9371 209.523 48.9196 209.453 48.8961C209.383 48.8727 209.318 48.8551 209.259 48.8434C207.982 48.4801 206.916 48.111 206.06 47.736C205.205 47.3492 204.461 46.8864 203.828 46.3473C203.195 45.8082 202.732 45.1813 202.439 44.4664C202.158 43.7399 202.017 42.8903 202.017 41.9176C202.017 40.2301 202.439 38.7711 203.283 37.5406C204.127 36.3102 205.24 35.3961 206.623 34.7985C208.017 34.2008 209.593 33.902 211.351 33.902C214.515 33.902 217.492 34.8453 220.281 36.7321L218.084 40.775Z" fill="#2E4053"/>
<path d="M237.582 43.2184V59.6364H232.625V34.0778H236.58L249.781 50.9176V34.1129H254.756V59.6364H250.625L237.582 43.2184ZM257.736 50.2321C257.736 48.9196 257.97 47.6715 258.439 46.4879C258.908 45.3043 259.558 44.2672 260.39 43.3766C261.222 42.4742 262.265 41.7594 263.519 41.2321C264.785 40.7047 266.162 40.441 267.65 40.441C269.63 40.441 271.377 40.8981 272.888 41.8121C274.412 42.7145 275.56 43.9039 276.334 45.3805C277.119 46.8453 277.511 48.4625 277.511 50.2321C277.511 51.5328 277.283 52.775 276.826 53.9586C276.369 55.1305 275.724 56.1676 274.892 57.0699C274.072 57.9606 273.035 58.6696 271.781 59.1969C270.527 59.7242 269.15 59.9879 267.65 59.9879C266.443 59.9879 265.312 59.818 264.257 59.4781C263.203 59.1266 262.283 58.6461 261.498 58.0367C260.713 57.4274 260.033 56.7184 259.459 55.9098C258.884 55.0895 258.451 54.1989 258.158 53.2379C257.877 52.2653 257.736 51.2633 257.736 50.2321ZM267.65 55.8922C269.045 55.8922 270.211 55.3531 271.148 54.275C272.097 53.1969 272.572 51.8375 272.572 50.1969C272.572 48.568 272.097 47.2203 271.148 46.1539C270.211 45.0875 269.045 44.5543 267.65 44.5543C266.255 44.5543 265.084 45.0934 264.134 46.1715C263.185 47.2496 262.711 48.6031 262.711 50.2321C262.711 51.8727 263.179 53.2262 264.117 54.2926C265.066 55.359 266.244 55.8922 267.65 55.8922ZM291.425 58.6696C289.503 59.525 287.728 59.9528 286.099 59.9528C285.407 59.9528 284.774 59.8649 284.2 59.6891C283.626 59.5133 283.11 59.2496 282.653 58.8981C282.196 58.5348 281.839 58.0485 281.581 57.4391C281.323 56.8297 281.194 56.1207 281.194 55.3121V44.484H278.716V40.775H281.194V34.6578H286.028V40.775H289.983V44.484H286.028V53.6949C286.063 54.9254 286.661 55.5406 287.821 55.5406C288.501 55.5406 289.38 55.3121 290.458 54.8551L291.425 58.6696ZM293.578 38.1383V33.3571H298.395V38.1383H293.578ZM293.578 59.6364V40.775H298.395V59.6364H293.578ZM303.537 59.6364V45.4508H301.058V41.777H303.537V40.6344C303.537 38.3024 304.105 36.4449 305.242 35.0621C306.39 33.6793 307.925 32.9879 309.847 32.9879C311.371 32.9879 312.918 33.3629 314.488 34.1129L313.521 37.7516C312.701 37.2946 311.822 37.066 310.884 37.066C310.064 37.066 309.437 37.3531 309.004 37.9274C308.582 38.5016 308.371 39.3395 308.371 40.441V41.777H312.976V45.4508H308.371V59.6364H303.537ZM315.358 38.1383V33.3571H320.175V38.1383H315.358ZM315.358 59.6364V40.775H320.175V59.6364H315.358ZM332.963 59.9879C331.475 59.9879 330.098 59.7242 328.832 59.1969C327.567 58.6578 326.512 57.943 325.668 57.0524C324.825 56.15 324.163 55.1071 323.682 53.9235C323.213 52.7399 322.979 51.4977 322.979 50.1969C322.979 48.4274 323.371 46.8102 324.157 45.3453C324.954 43.8805 326.114 42.6969 327.637 41.7946C329.172 40.8922 330.936 40.441 332.928 40.441C334.92 40.441 336.655 40.8746 338.131 41.7418C339.608 42.609 340.715 43.7867 341.454 45.275L336.743 46.7164C336.344 46.0367 335.805 45.5094 335.125 45.1344C334.446 44.7477 333.702 44.5543 332.893 44.5543C331.487 44.5543 330.309 45.0817 329.36 46.1364C328.422 47.191 327.954 48.5446 327.954 50.1969C327.954 51.8258 328.434 53.1852 329.395 54.275C330.356 55.3531 331.522 55.8922 332.893 55.8922C333.748 55.8922 334.539 55.6813 335.266 55.2594C336.004 54.8375 336.52 54.3043 336.813 53.6598L341.524 55.1012C340.856 56.566 339.766 57.7496 338.254 58.652C336.743 59.5426 334.979 59.9879 332.963 59.9879ZM342.834 54.0641C342.834 52.236 343.584 50.7594 345.084 49.6344C346.584 48.4977 348.535 47.9293 350.937 47.9293C352.742 47.9293 354.254 48.1813 355.472 48.6852V47.6832C355.472 46.4762 355.115 45.5504 354.4 44.9059C353.697 44.2614 352.648 43.9391 351.254 43.9391C350.246 43.9391 349.285 44.1149 348.371 44.4664C347.457 44.8063 346.455 45.3395 345.365 46.066L343.801 42.902C346.32 41.2614 348.974 40.441 351.763 40.441C354.459 40.441 356.551 41.1149 358.039 42.4625C359.539 43.8102 360.289 45.7321 360.289 48.2281V54.2399C360.289 54.7555 360.377 55.1246 360.553 55.3473C360.728 55.5582 361.027 55.6813 361.449 55.7164V59.6364C360.64 59.8004 359.955 59.8824 359.392 59.8824C358.467 59.8824 357.746 59.6832 357.23 59.2848C356.726 58.8746 356.416 58.3297 356.299 57.65L356.193 56.6832C355.385 57.7262 354.365 58.5406 353.135 59.1266C351.916 59.7008 350.668 59.9879 349.39 59.9879C347.504 59.9879 345.939 59.4254 344.697 58.3004C343.455 57.1754 342.834 55.7633 342.834 54.0641ZM354.576 55.0309C355.174 54.4332 355.472 53.8824 355.472 53.3785V51.4625C354.242 50.9586 352.982 50.7067 351.693 50.7067C350.428 50.7067 349.396 50.9821 348.599 51.5328C347.803 52.0719 347.404 52.7809 347.404 53.6598C347.404 54.4215 347.709 55.0836 348.318 55.6461C348.928 56.1969 349.742 56.4723 350.761 56.4723C351.476 56.4723 352.174 56.3434 352.853 56.0856C353.545 55.816 354.119 55.4645 354.576 55.0309Z" fill="#0084F5"/>
<defs>
<filter id="filter0_di" x="0" y="0" width="107.833" height="108" filterUnits="userSpaceOnUse" color-interpolation-filters="sRGB">
<feFlood flood-opacity="0" result="BackgroundImageFix"/>
<feColorMatrix in="SourceAlpha" type="matrix" values="0 0 0 0 0 0 0 0 0 0 0 0 0 0 0 0 0 0 127 0"/>
<feMorphology radius="2" operator="dilate" in="SourceAlpha" result="effect1_dropShadow"/>
<feOffset dy="4"/>
<feGaussianBlur stdDeviation="8"/>
<feColorMatrix type="matrix" values="0 0 0 0 0.188235 0 0 0 0 0.239216 0 0 0 0 0.494118 0 0 0 0.1 0"/>
<feBlend mode="normal" in2="BackgroundImageFix" result="effect1_dropShadow"/>
<feBlend mode="normal" in="SourceGraphic" in2="effect1_dropShadow" result="shape"/>
<feColorMatrix in="SourceAlpha" type="matrix" values="0 0 0 0 0 0 0 0 0 0 0 0 0 0 0 0 0 0 127 0" result="hardAlpha"/>
<feOffset dy="-2"/>
<feGaussianBlur stdDeviation="3.5"/>
<feComposite in2="hardAlpha" operator="arithmetic" k2="-1" k3="1"/>
<feColorMatrix type="matrix" values="0 0 0 0 0 0 0 0 0 0 0 0 0 0 0 0 0 0 0.2 0"/>
<feBlend mode="normal" in2="shape" result="effect2_innerShadow"/>
</filter>
<filter id="filter1_b" x="-8" y="-12" width="123.833" height="124" filterUnits="userSpaceOnUse" color-interpolation-filters="sRGB">
<feFlood flood-opacity="0" result="BackgroundImageFix"/>
<feGaussianBlur in="BackgroundImage" stdDeviation="13"/>
<feComposite in2="SourceAlpha" operator="in" result="effect1_backgroundBlur"/>
<feBlend mode="normal" in="SourceGraphic" in2="effect1_backgroundBlur" result="shape"/>
</filter>
<clipPath id="clip0">
<rect x="18" y="14" width="71.8326" height="72" rx="14" fill="white"/>
</clipPath>
</defs>
</svg>
